<?xml version="1.0" encoding="UTF-8" standalone="no"?>
<!-- Created with Inkscape (http://www.inkscape.org/) -->

<svg
   version="1.1"
   id="svg1"
   width="1024"
   height="720"
   viewBox="0 0 1024 720"
   sodipodi:docname="openMind_Logo.svg"
   inkscape:version="1.3.2 (091e20e, 2023-11-25, custom)"
   xmlns:inkscape="http://www.inkscape.org/namespaces/inkscape"
   xmlns:sodipodi="http://sodipodi.sourceforge.net/DTD/sodipodi-0.dtd"
   xmlns="http://www.w3.org/2000/svg"
   xmlns:svg="http://www.w3.org/2000/svg">
  <sodipodi:namedview
     id="namedview1"
     pagecolor="#ffffff"
     bordercolor="#000000"
     borderopacity="0.25"
     inkscape:showpageshadow="2"
     inkscape:pageopacity="0.0"
     inkscape:pagecheckerboard="0"
     inkscape:deskcolor="#d1d1d1"
     inkscape:zoom="1.1835938"
     inkscape:cx="512"
     inkscape:cy="360.34323"
     inkscape:window-width="1920"
     inkscape:window-height="1111"
     inkscape:window-x="-9"
     inkscape:window-y="-9"
     inkscape:window-maximized="1"
     inkscape:current-layer="svg1" />
  <defs
     id="defs1" />
  <g
     id="g1"
     style="fill:#008080;fill-opacity:1">
    <path
       style="fill:#008080;fill-opacity:1"
       d="m 483.73244,601.44894 c -15.38587,-2.55065 -27.20402,-13.06697 -31.4251,-27.96347 -1.58738,-5.60199 -1.58738,-5.60199 -9.13236,-6.23977 -8.5452,-0.72233 -12.09994,-2.22323 -15.86609,-6.69905 -3.26909,-3.88508 -3.49069,-8.86027 -0.51464,-11.5542 2.01447,-1.8235 4.741,-1.91665 63.73827,-2.17762 43.40996,-0.19201 62.425,0.0551 64.30973,0.83579 1.47177,0.60963 3.211,2.40015 3.86496,3.97894 0.99502,2.4022 0.88666,3.47895 -0.66421,6.59968 -3.13957,6.31759 -6.15999,7.78729 -17.17542,8.35737 -9.67781,0.50085 -9.67781,0.50085 -10.44415,7.44088 -1.2639,11.44591 -6.83299,18.51139 -18.97093,24.06832 -9.22077,4.22141 -16.88797,5.14886 -27.72006,3.35313 z m 21.39177,-19.83655 c 3.25462,-1.23741 6.55697,-6.59422 6.56182,-10.64409 0.003,-2.82843 -0.34579,-3.17693 -3.74626,-3.73899 -2.0625,-0.34091 -11.0625,-0.62479 -20,-0.63084 -16.04367,-0.0109 -16.25,0.0167 -16.25,2.17327 0,4.07488 4.10575,10.95411 7.39135,12.38428 3.66991,1.59747 22.18826,1.92197 26.04309,0.45637 z m -53.93444,-49.98732 c -23.7125,-0.57946 -25.36073,-0.93382 -27.98965,-6.01759 -2.11176,-4.0837 -1.89033,-6.46667 0.90269,-9.71426 2.41304,-2.80576 2.41304,-2.80576 65.47981,-3.07761 68.58368,-0.29564 68.75818,-0.28293 71.25201,5.19045 0.92183,2.02319 0.80532,3.42333 -0.5886,7.07326 -2.93684,7.69001 -1.9492,7.53753 -47.2566,7.29575 -21.88981,-0.11681 -49.69966,-0.45431 -61.79966,-0.75 z m 8.66658,-32.00414 c -32.33343,-0.53347 -32.33343,-0.53347 -35.25,-3.79925 -3.56048,-3.98677 -3.69701,-7.10008 -0.46433,-10.5882 2.45225,-2.64602 2.45225,-2.64602 21.75,-2.72512 10.61376,-0.0435 39.54775,-0.18818 64.29775,-0.32149 46.84829,-0.25234 49.34221,-0.0589 50.87882,3.94539 2.45943,6.40918 -1.42906,12.29289 -8.93875,13.52528 -5.22878,0.85808 -38.85595,0.84474 -92.27349,-0.0366 z m -24.89791,-32.13114 c -4.61883,-0.35152 -8.95696,-1.22867 -9.88473,-1.99866 -1.22349,-1.0154 -5.32363,-1.38251 -15.76867,-1.41187 -12.07428,-0.0339 -14.97718,-0.36133 -20.07614,-2.26417 -8.61959,-3.21668 -15.8832,-8.38681 -25.53913,-18.17841 -9.47425,-9.60736 -15.24785,-18.85933 -19.68801,-31.54922 -2.63272,-7.52426 -2.79828,-8.98122 -2.78411,-24.5 0.0178,-19.47508 0.88332,-22.5166 11.52983,-40.51587 7.8261,-13.231 17.03342,-23.41667 23.798,-26.32671 4.83901,-2.08169 4.83901,-2.08169 5.50777,-12.86955 1.37931,-22.24967 5.83396,-32.49202 20.61157,-47.39114 11.07787,-11.16896 19.28085,-16.37873 32.98945,-20.95183 20.25377,-6.75654 37.11048,-4.86757 53.61794,6.00844 3.08244,2.03088 3.08244,2.03088 7,-0.95256 9.75959,-7.43248 34.05883,-11.23978 48.43658,-7.58923 15.81547,4.01559 34.93759,16.20724 44.49193,28.36662 10.07172,12.81782 14.02566,23.89011 15.14246,42.40373 0.35441,5.87504 0.91487,11.06929 1.24548,11.54278 0.33061,0.47348 3.30111,3.02663 6.60111,5.67366 10.19559,8.17818 17.60309,18.25254 25.07436,34.10166 5.12812,10.87849 6.7407,18.10372 6.69563,30 -0.0805,21.23422 -8.24723,40.51428 -23.71194,55.97899 -15.16585,15.16585 -31.09475,21.55648 -50.34435,20.19802 -6.73822,-0.47553 -8.89449,-0.27705 -10.84015,0.9978 -2.14259,1.40388 -9.11283,1.60688 -59.15117,1.72269 -31.19731,0.0722 -60.42648,-0.15062 -64.95371,-0.49517 z m 42.81275,-18.5345 c 3.58142,-0.56953 3.58142,-0.56953 3.11068,-11.21868 -0.47073,-10.64915 -0.47073,-10.64915 -7.07003,-17.64915 -8.74611,-9.27716 -21.94628,-22.5 -22.46143,-22.5 -0.22585,0 -0.68899,1.39175 -1.02919,3.09277 -0.87711,4.38553 -5.84235,8.66727 -10.92929,9.4248 -2.31119,0.34418 -12.15465,0.48102 -21.87435,0.3041 -17.0843,-0.31097 -17.75744,-0.40184 -20.23469,-2.7316 -3.45613,-3.25035 -4.22883,-7.94815 -2.05932,-12.52005 3.2017,-6.74709 4.45288,-7.17737 23.0923,-7.94135 16.57452,-0.67934 21.3902,-1.24015 21.35662,-2.48708 -0.009,-0.35287 -1.38052,-1.5936 -3.0467,-2.75716 -1.66618,-1.16357 -8.0254,-7.68857 -14.13161,-14.5 -6.1062,-6.81144 -14.09901,-15.53443 -17.76178,-19.38443 -3.66278,-3.85 -7.40851,-8.09511 -8.32384,-9.43357 -1.50193,-2.19622 -1.90164,-2.30653 -4.09814,-1.131 -3.08189,1.64938 -5.36401,6.22745 -6.13869,12.31457 -0.49156,3.86249 -0.97419,4.75 -2.58307,4.75 -6.13425,0 -12.23384,5.94184 -18.4779,18 -2.62332,5.066 -2.84849,6.368 -2.85361,16.5 -0.008,15.7951 3.63744,25.73389 13.85736,37.78057 13.02838,15.35711 30.02596,21.00781 45.65585,15.17789 8.37328,-3.12323 9.12412,-3.03156 12.81788,1.56482 5.31762,6.61707 7.30029,7.13956 24.60153,6.48317 8.25,-0.31299 16.61164,-0.82537 18.58142,-1.13862 z m 63.2007,0.27665 c 1.76983,-0.74554 5.57338,-3.48095 8.45233,-6.07869 5.23444,-4.72316 5.23444,-4.72316 13.21774,-1.64447 9.47647,3.65451 16.1588,3.96492 24.38999,1.13298 10.85378,-3.73425 19.98986,-11.28153 27.08742,-22.3768 4.32819,-6.76605 6.44854,-13.1748 7.78546,-23.53149 2.4054,-18.63395 -4.19059,-33.06648 -18.3874,-40.233 -6.09819,-3.07837 -6.16966,-3.19783 -7.35388,-12.29333 -0.67218,-5.16274 -2.30611,-9.61968 -3.5266,-9.61968 -0.76392,0 -26.34028,27.30188 -39.34555,42 -6.20175,7.00901 -7.22111,8.61923 -5.81132,9.17971 0.94033,0.37385 9.26954,0.71135 18.50935,0.75 18.1362,0.0759 20.92493,0.71173 24.05184,5.48399 0.90668,1.38377 1.6485,4.00231 1.6485,5.81898 0,4.04709 -4.20187,10.5289 -7.33522,11.31532 -1.25373,0.31466 -11.33464,0.43259 -22.40202,0.26206 -22.7079,-0.3499 -23.83251,-0.6898 -27.76276,-8.39108 -1.1,-2.15544 -2.09057,-4.08455 -2.20127,-4.28691 -0.11069,-0.20237 -3.75727,3.39763 -8.10351,8 -6.9307,7.33913 -10.54736,11.41634 -18.29573,20.62554 -1.60137,1.90328 -1.89949,3.90136 -1.89949,12.73094 0,11.53956 -0.51921,10.66097 7,11.84531 6.7035,1.05587 27.24943,0.58813 30.28212,-0.68938 z m -58.65183,-53.89448 c -0.33164,-1.2375 -0.60913,-7.25057 -0.61664,-13.36237 -0.0136,-11.11237 -0.0136,-11.11237 -7.61637,-19.5 -22.62066,-24.95605 -32.10107,-35.29527 -33.89728,-36.96798 -1.1,-1.02437 -3.87072,-3.58063 -6.15716,-5.68059 -5.37943,-4.94067 -6.55676,-10.70637 -3.56652,-17.46629 6.5748,-14.86343 28.72876,-9.81812 26.93081,6.13317 -0.50386,4.47031 -0.35998,4.75698 6.31648,12.58429 3.75766,4.40537 9.34823,10.47795 12.4235,13.49462 5.59139,5.48486 5.59139,5.48486 4.93968,-30.5 -0.52056,-28.74354 -0.93419,-36.3106 -2.05548,-37.60363 -2.60265,-3.00127 -13.72196,-7.84696 -19.50146,-8.49855 -7.69273,-0.86729 -17.82363,1.12586 -26.45393,5.20453 -9.20497,4.35026 -20.86126,15.06551 -24.75038,22.75223 -5.20256,10.28266 -5.38969,24.91044 -0.41421,32.37789 3.79899,5.70172 15.669,18.96138 32.92773,36.78268 8.52221,8.8 21.08077,21.9625 27.9079,29.25 6.82714,7.2875 12.81198,13.25 13.29964,13.25 0.48766,0 0.61532,-1.0125 0.28369,-2.25 z m 91.73646,-71.61883 c 6.77701,-7.67978 8.08891,-11.72274 7.27851,-22.4306 -0.82632,-10.91824 -4.62508,-18.58147 -13.17646,-26.58087 -9.89281,-9.25424 -29.72284,-18.1197 -40.52968,-18.1197 -5.02709,0 -9.31661,1.58078 -17.08204,6.29511 -6.47761,3.9325 -6.65932,4.15647 -7.30183,8.99991 -0.87853,6.6227 0.52822,64.70498 1.56715,64.70498 0.44794,0 5.99057,-5.23406 12.31697,-11.63125 11.50253,-11.63125 11.50253,-11.63125 10.93474,-17.25 -0.4867,-4.81621 -0.22974,-6.11867 1.79898,-9.11875 3.21778,-4.75846 8.26092,-7.2521 13.18188,-6.51793 8.60024,1.2831 13.66273,6.72199 13.62307,14.63596 -0.0342,6.81454 -2.95706,11.97945 -9.72775,17.18937 -3.28829,2.53029 -9.52649,8.55874 -13.86266,13.39656 -4.33616,4.83782 -12.6784,13.86694 -18.5383,20.06471 -10.65436,11.26866 -10.65436,11.26866 -11.36311,22.61176 -0.38981,6.23871 -0.41171,12.27898 -0.0487,13.42284 0.56497,1.78006 5.31765,-2.63072 32.98456,-30.61177 17.77846,-17.98033 34.85355,-35.55747 37.94463,-39.06033 z m 97.9358,44.74168 c -2.58352,-1.33039 -5.30255,-6.59057 -5.30255,-10.2582 0,-1.441 1.28999,-4.02703 2.9176,-5.84887 2.9176,-3.26578 2.9176,-3.26578 19.5409,-3.6194 20.55318,-0.43721 23.02898,-0.0349 25.58546,4.15788 2.93154,4.80787 2.5174,8.33438 -1.44396,12.29574 -3.4,3.4 -3.4,3.4 -13.25,3.40599 -5.4175,0.003 -13.45,0.2293 -17.85,0.50222 -4.97067,0.30832 -8.8321,0.0677 -10.19745,-0.63536 z m -401.3215,-3.62285 c -1.94681,-1.75503 -3.26346,-4.09 -3.63909,-6.45361 -0.50407,-3.17176 -0.17078,-4.12141 2.32087,-6.61306 2.90945,-2.90946 2.90945,-2.90946 19.89098,-3.63529 22.65056,-0.96815 27.15886,-0.0148 29.55439,6.24979 1.15635,3.02401 -1.00825,8.19179 -4.62188,11.03427 -2.60579,2.04972 -3.78362,2.1679 -21.6054,2.1679 -18.84937,0 -18.84937,0 -21.89987,-2.75 z M 584.07789,234.60739 c -3.53776,-1.42941 -6.38812,-5.93799 -6.38812,-10.10445 0,-3.52882 1.03024,-4.90561 13.74242,-18.36514 12.77409,-13.52508 13.99759,-14.55034 17.36364,-14.55034 2.57924,0 4.3798,0.75859 6.25758,2.63636 3.75027,3.75028 3.57139,8.75869 -0.51658,14.4636 -6.71886,9.37642 -20.42061,24.24174 -23.54908,25.5489 -3.6643,1.53104 -3.99502,1.5488 -6.90986,0.37107 z m -189.16458,-3.26993 c -1.77101,-1.2375 -8.17081,-7.81509 -14.22178,-14.61687 -9.49979,-10.67853 -11.00176,-12.83925 -11.00176,-15.82693 0,-6.59307 8.27789,-12.04856 13.94431,-9.1899 4.80605,2.42461 24.63719,25.7174 25.59326,30.06071 1.08125,4.91197 -4.20201,11.82299 -9.0383,11.82299 -1.13064,0 -3.50472,-1.0125 -5.27573,-2.25 z m 91.93585,-27.35091 c -1.2571,-0.88051 -2.68375,-2.64807 -3.17036,-3.92793 -0.4866,-1.27986 -0.99298,-10.57195 -1.12529,-20.64909 -0.20194,-15.38032 0.0229,-18.82127 1.40069,-21.43122 3.34436,-6.33546 12.78842,-6.92557 17.13974,-1.07097 1.9202,2.58358 2.12209,4.37603 2.40916,21.39001 0.20241,11.99636 -0.0781,19.5151 -0.79239,21.23955 -2.23624,5.39877 -10.99749,7.85657 -15.86155,4.44965 z"
       id="path1" />
  </g>
</svg>
